<svg height="496pt" viewBox="0 0 496 496" width="496pt" xmlns="http://www.w3.org/2000/svg"><g fill="#f39237"><path d="m428.695312 496h48l-25.390624-152h-48zm0 0"/><path d="m141.175781 40h-48l4.671875-33.121094c.558594-3.941406 3.9375-6.878906 7.921875-6.878906h31.839844c4.863281 0 8.597656 4.304688 7.917969 9.121094zm0 0"/><path d="m346.824219 40h48l-4.671875-33.121094c-.558594-3.941406-3.9375-6.878906-7.921875-6.878906h-31.839844c-4.863281 0-8.597656 4.304688-7.917969 9.121094zm0 0"/></g><path d="m416 352h-400v-320h464v320h-48" fill="#fce0b0"/><path d="m488 64h-480c-4.414062 0-8-3.585938-8-8v-16c0-4.414062 3.585938-8 8-8h480c4.414062 0 8 3.585938 8 8v16c0 4.414062-3.585938 8-8 8zm0 0" fill="#fcb641"/><path d="m67.304688 496h-48l25.390624-152h48zm0 0" fill="#f39237"/><path d="m152 320h-96v-23.664062l8-8.335938h80l8 7.664062zm0 0" fill="#e65039"/><path d="m432 320h56c4.414062 0 8 3.585938 8 8v16c0 4.414062-3.585938 8-8 8h-480c-4.414062 0-8-3.585938-8-8v-16c0-4.414062 3.585938-8 8-8zm0 0" fill="#fcb641"/></svg>